<svg width="300" height="200" viewBox="0 0 300 200" xmlns="http://www.w3.org/2000/svg">
  <defs>
    <linearGradient id="watermelonGradient" x1="0%" y1="0%" x2="100%" y2="100%">
      <stop offset="0%" style="stop-color:#FF6B6B;stop-opacity:1" />
      <stop offset="100%" style="stop-color:#FF4757;stop-opacity:1" />
    </linearGradient>
    <linearGradient id="rindGradient" x1="0%" y1="0%" x2="100%" y2="100%">
      <stop offset="0%" style="stop-color:#2ED573;stop-opacity:1" />
      <stop offset="100%" style="stop-color:#1DD1A1;stop-opacity:1" />
    </linearGradient>
    <linearGradient id="seedGradient" x1="0%" y1="0%" x2="100%" y2="100%">
      <stop offset="0%" style="stop-color:#2F3542;stop-opacity:1" />
      <stop offset="100%" style="stop-color:#1E2A3A;stop-opacity:1" />
    </linearGradient>
  </defs>

  <!-- Watermelon slice -->
  <path d="M 50 100 L 250 100 L 250 180 L 50 180 Z" fill="url(#watermelonGradient)"/>

  <!-- Rind -->
  <path d="M 50 100 L 250 100 L 250 110 L 50 110 Z" fill="url(#rindGradient)"/>

  <!-- Seeds -->
  <ellipse cx="80" cy="120" rx="3" ry="6" fill="url(#seedGradient)" transform="rotate(45 80 120)"/>
  <ellipse cx="120" cy="130" rx="3" ry="6" fill="url(#seedGradient)" transform="rotate(45 120 130)"/>
  <ellipse cx="160" cy="125" rx="3" ry="6" fill="url(#seedGradient)" transform="rotate(45 160 125)"/>
  <ellipse cx="200" cy="135" rx="3" ry="6" fill="url(#seedGradient)" transform="rotate(45 200 135)"/>
  <ellipse cx="240" cy="128" rx="3" ry="6" fill="url(#seedGradient)" transform="rotate(45 240 128)"/>

  <!-- Inner texture lines -->
  <line x1="60" y1="140" x2="240" y2="140" stroke="#FF4757" stroke-width="1" opacity="0.3"/>
  <line x1="70" y1="150" x2="230" y2="150" stroke="#FF4757" stroke-width="1" opacity="0.2"/>
  <line x1="80" y1="160" x2="220" y2="160" stroke="#FF4757" stroke-width="1" opacity="0.1"/>

  <!-- Highlight -->
  <ellipse cx="180" cy="110" rx="40" ry="20" fill="white" opacity="0.1"/>
</svg>
